<svg xmlns="http://www.w3.org/2000/svg" height="800" width="1200" viewBox="-30.2529 -62.5 262.1918 375"><g fill-rule="evenodd"><path d="M.638 222.552h6.489V250h6.388v-27.448h6.326v-6.142H.638v6.142zm22.12-6.142V250h6.41v-14.408h11.937V250h6.367v-33.59h-6.367v13.652H29.167V216.41H22.76zm31.02 0V250h18.1v-6.286h-12.02v-7.51h11.694v-5.714H59.859v-7.938h12.427v-6.142H53.778zm32.957 0h-9.04V250h6.326v-13.203L92.776 250h7.774l-9.203-12.714c3.285-.49 5.142-2.082 6.735-3.899 1.285-1.896 2-4.162 2-6.264 0-2.306-.715-4.571-1.735-6.346-1.205-1.408-2.878-2.674-4.715-3.428a25.92 25.92 0 00-6.897-.94zm-2.816 6.142h3.387c4.45 0 6.633 1.673 6.633 4.571 0 3.367-1.694 5.02-6.143 5.02H83.92v-9.591zM104.224 250h5.896v-25.183L119.284 250h5.183l8.734-25.183V250h6.327v-33.59h-8.755l-9.204 25.589-9.018-25.59h-8.327V250zm52.588-33.59L142.467 250h7.06l3.714-8.755h11.897l3.858 8.755 4.754-6.53-12.326-27.06h-4.612zm2.184 9.08l3.754 9.612h-7.162l3.408-9.611zm23.631 7.897L171.015 250h7l8.02-11.714L194.198 250h7.488l-11.895-16.613 11.875-16.977h-7.468l-8.163 11.651-7.939-11.651h-7.08l11.611 16.977z" fill="#161413"/><path d="M95.39 18.812V195.37l-46.576.327V95.794H0V0l74.32.29h1.602C86.36.29 94.695 8.314 95.39 18.811zm8.13-.309v177.195h46.786V95.794h49.239V0h-76.868c-10.457 0-18.908 8.007-19.158 18.503z" fill="#e20010"/></g></svg>